<mxfile host="app.diagrams.net" modified="2024-01-11T17:36:28.879Z" agent="Mozilla/5.0 (Windows NT 10.0; Win64; x64) AppleWebKit/537.36 (KHTML, like Gecko) Chrome/120.0.0.0 Safari/537.36" etag="wtcrTIjuiSMdjj9qx9tg" version="22.1.18" type="github">
  <diagram name="Page-1" id="JCHEIruAJrnFE4wf-b7R">
    <mxGraphModel dx="1434" dy="738" grid="1" gridSize="10" guides="1" tooltips="1" connect="1" arrows="1" fold="1" page="1" pageScale="1" pageWidth="827" pageHeight="1169" math="0" shadow="0">
      <root>
        <mxCell id="0" />
        <mxCell id="1" parent="0" />
        <mxCell id="4w8I4MJi7LQIZc6itaXW-21" style="edgeStyle=orthogonalEdgeStyle;rounded=0;orthogonalLoop=1;jettySize=auto;html=1;enumerate=1;enumerateValue=2;startArrow=classic;startFill=1;" edge="1" parent="1" source="4w8I4MJi7LQIZc6itaXW-1" target="4w8I4MJi7LQIZc6itaXW-14">
          <mxGeometry relative="1" as="geometry" />
        </mxCell>
        <mxCell id="4w8I4MJi7LQIZc6itaXW-22" style="edgeStyle=orthogonalEdgeStyle;rounded=0;orthogonalLoop=1;jettySize=auto;html=1;exitX=1;exitY=0.25;exitDx=0;exitDy=0;exitPerimeter=0;startArrow=none;startFill=0;enumerate=1;enumerateValue=%E2%88%9E;" edge="1" parent="1" source="4w8I4MJi7LQIZc6itaXW-1" target="4w8I4MJi7LQIZc6itaXW-13">
          <mxGeometry relative="1" as="geometry">
            <Array as="points">
              <mxPoint x="460" y="340" />
              <mxPoint x="460" y="260" />
              <mxPoint x="559" y="260" />
            </Array>
          </mxGeometry>
        </mxCell>
        <mxCell id="4w8I4MJi7LQIZc6itaXW-27" style="edgeStyle=orthogonalEdgeStyle;rounded=0;orthogonalLoop=1;jettySize=auto;html=1;exitX=1;exitY=0.5;exitDx=0;exitDy=0;exitPerimeter=0;enumerate=1;enumerateValue=4;" edge="1" parent="1" source="4w8I4MJi7LQIZc6itaXW-1" target="4w8I4MJi7LQIZc6itaXW-2">
          <mxGeometry relative="1" as="geometry" />
        </mxCell>
        <mxCell id="4w8I4MJi7LQIZc6itaXW-1" value="" style="sketch=0;points=[[0,0,0],[0.25,0,0],[0.5,0,0],[0.75,0,0],[1,0,0],[0,1,0],[0.25,1,0],[0.5,1,0],[0.75,1,0],[1,1,0],[0,0.25,0],[0,0.5,0],[0,0.75,0],[1,0.25,0],[1,0.5,0],[1,0.75,0]];outlineConnect=0;fontColor=#232F3E;fillColor=#ED7100;strokeColor=#ffffff;dashed=0;verticalLabelPosition=bottom;verticalAlign=top;align=center;html=1;fontSize=12;fontStyle=0;aspect=fixed;shape=mxgraph.aws4.resourceIcon;resIcon=mxgraph.aws4.lambda;" vertex="1" parent="1">
          <mxGeometry x="362" y="320" width="78" height="78" as="geometry" />
        </mxCell>
        <mxCell id="4w8I4MJi7LQIZc6itaXW-2" value="" style="sketch=0;points=[[0,0,0],[0.25,0,0],[0.5,0,0],[0.75,0,0],[1,0,0],[0,1,0],[0.25,1,0],[0.5,1,0],[0.75,1,0],[1,1,0],[0,0.25,0],[0,0.5,0],[0,0.75,0],[1,0.25,0],[1,0.5,0],[1,0.75,0]];outlineConnect=0;fontColor=#232F3E;fillColor=#7AA116;strokeColor=#ffffff;dashed=0;verticalLabelPosition=bottom;verticalAlign=top;align=center;html=1;fontSize=12;fontStyle=0;aspect=fixed;shape=mxgraph.aws4.resourceIcon;resIcon=mxgraph.aws4.s3;" vertex="1" parent="1">
          <mxGeometry x="520" y="320" width="78" height="78" as="geometry" />
        </mxCell>
        <mxCell id="4w8I4MJi7LQIZc6itaXW-3" value="" style="sketch=0;outlineConnect=0;fontColor=#232F3E;gradientColor=none;fillColor=#E7157B;strokeColor=none;dashed=0;verticalLabelPosition=bottom;verticalAlign=top;align=center;html=1;fontSize=12;fontStyle=0;aspect=fixed;pointerEvents=1;shape=mxgraph.aws4.parameter_store;" vertex="1" parent="1">
          <mxGeometry x="363.08" y="120" width="76.92" height="80" as="geometry" />
        </mxCell>
        <mxCell id="4w8I4MJi7LQIZc6itaXW-19" style="edgeStyle=orthogonalEdgeStyle;rounded=0;orthogonalLoop=1;jettySize=auto;html=1;enumerate=1;enumerateValue=1;" edge="1" parent="1" source="4w8I4MJi7LQIZc6itaXW-4" target="4w8I4MJi7LQIZc6itaXW-1">
          <mxGeometry relative="1" as="geometry" />
        </mxCell>
        <mxCell id="4w8I4MJi7LQIZc6itaXW-4" value="" style="sketch=0;outlineConnect=0;fontColor=#232F3E;gradientColor=none;fillColor=#232F3D;strokeColor=none;dashed=0;verticalLabelPosition=bottom;verticalAlign=top;align=center;html=1;fontSize=12;fontStyle=0;aspect=fixed;pointerEvents=1;shape=mxgraph.aws4.user;" vertex="1" parent="1">
          <mxGeometry x="122" y="320" width="78" height="78" as="geometry" />
        </mxCell>
        <mxCell id="4w8I4MJi7LQIZc6itaXW-6" value="" style="dashed=0;outlineConnect=0;html=1;align=center;labelPosition=center;verticalLabelPosition=bottom;verticalAlign=top;shape=mxgraph.webicons.wordpress_2;fillColor=#35E2EE;gradientColor=#0E4D99" vertex="1" parent="1">
          <mxGeometry x="122" y="120" width="80" height="80" as="geometry" />
        </mxCell>
        <mxCell id="4w8I4MJi7LQIZc6itaXW-7" value="" style="sketch=0;points=[[0,0,0],[0.25,0,0],[0.5,0,0],[0.75,0,0],[1,0,0],[0,1,0],[0.25,1,0],[0.5,1,0],[0.75,1,0],[1,1,0],[0,0.25,0],[0,0.5,0],[0,0.75,0],[1,0.25,0],[1,0.5,0],[1,0.75,0]];points=[[0,0,0],[0.25,0,0],[0.5,0,0],[0.75,0,0],[1,0,0],[0,1,0],[0.25,1,0],[0.5,1,0],[0.75,1,0],[1,1,0],[0,0.25,0],[0,0.5,0],[0,0.75,0],[1,0.25,0],[1,0.5,0],[1,0.75,0]];outlineConnect=0;fontColor=#232F3E;fillColor=#E7157B;strokeColor=#ffffff;dashed=0;verticalLabelPosition=bottom;verticalAlign=top;align=center;html=1;fontSize=12;fontStyle=0;aspect=fixed;shape=mxgraph.aws4.resourceIcon;resIcon=mxgraph.aws4.cloudwatch_2;" vertex="1" parent="1">
          <mxGeometry x="520" y="120" width="78" height="78" as="geometry" />
        </mxCell>
        <mxCell id="4w8I4MJi7LQIZc6itaXW-10" value="User" style="text;html=1;strokeColor=none;fillColor=none;align=center;verticalAlign=middle;whiteSpace=wrap;rounded=0;" vertex="1" parent="1">
          <mxGeometry x="122" y="400" width="78" height="40" as="geometry" />
        </mxCell>
        <mxCell id="4w8I4MJi7LQIZc6itaXW-11" value="Lambda Function" style="text;html=1;strokeColor=none;fillColor=none;align=center;verticalAlign=middle;whiteSpace=wrap;rounded=0;" vertex="1" parent="1">
          <mxGeometry x="362" y="398" width="78" height="40" as="geometry" />
        </mxCell>
        <mxCell id="4w8I4MJi7LQIZc6itaXW-12" value="S3 Bucket" style="text;html=1;strokeColor=none;fillColor=none;align=center;verticalAlign=middle;whiteSpace=wrap;rounded=0;" vertex="1" parent="1">
          <mxGeometry x="520" y="398" width="78" height="40" as="geometry" />
        </mxCell>
        <mxCell id="4w8I4MJi7LQIZc6itaXW-13" value="CloudWatch Log Group" style="text;html=1;strokeColor=none;fillColor=none;align=center;verticalAlign=middle;whiteSpace=wrap;rounded=0;" vertex="1" parent="1">
          <mxGeometry x="520" y="198" width="78" height="40" as="geometry" />
        </mxCell>
        <mxCell id="4w8I4MJi7LQIZc6itaXW-14" value="Parameter Store" style="text;html=1;strokeColor=none;fillColor=none;align=center;verticalAlign=middle;whiteSpace=wrap;rounded=0;" vertex="1" parent="1">
          <mxGeometry x="362" y="200" width="78" height="40" as="geometry" />
        </mxCell>
        <mxCell id="4w8I4MJi7LQIZc6itaXW-15" value="WordPress API" style="text;html=1;strokeColor=none;fillColor=none;align=center;verticalAlign=middle;whiteSpace=wrap;rounded=0;" vertex="1" parent="1">
          <mxGeometry x="124" y="200" width="78" height="40" as="geometry" />
        </mxCell>
        <mxCell id="4w8I4MJi7LQIZc6itaXW-16" value="AWS Cloud" style="points=[[0,0],[0.25,0],[0.5,0],[0.75,0],[1,0],[1,0.25],[1,0.5],[1,0.75],[1,1],[0.75,1],[0.5,1],[0.25,1],[0,1],[0,0.75],[0,0.5],[0,0.25]];outlineConnect=0;gradientColor=none;html=1;whiteSpace=wrap;fontSize=12;fontStyle=0;container=1;pointerEvents=0;collapsible=0;recursiveResize=0;shape=mxgraph.aws4.group;grIcon=mxgraph.aws4.group_aws_cloud_alt;strokeColor=#232F3E;fillColor=none;verticalAlign=top;align=left;spacingLeft=30;fontColor=#232F3E;dashed=0;" vertex="1" parent="1">
          <mxGeometry x="320" y="80" width="320" height="400" as="geometry" />
        </mxCell>
        <mxCell id="4w8I4MJi7LQIZc6itaXW-17" value="Server contents" style="points=[[0,0],[0.25,0],[0.5,0],[0.75,0],[1,0],[1,0.25],[1,0.5],[1,0.75],[1,1],[0.75,1],[0.5,1],[0.25,1],[0,1],[0,0.75],[0,0.5],[0,0.25]];outlineConnect=0;gradientColor=none;html=1;whiteSpace=wrap;fontSize=12;fontStyle=0;container=1;pointerEvents=0;collapsible=0;recursiveResize=0;shape=mxgraph.aws4.group;grIcon=mxgraph.aws4.group_on_premise;strokeColor=#7D8998;fillColor=none;verticalAlign=top;align=left;spacingLeft=30;fontColor=#5A6C86;dashed=0;" vertex="1" parent="1">
          <mxGeometry x="80" y="80" width="160" height="200" as="geometry" />
        </mxCell>
        <mxCell id="4w8I4MJi7LQIZc6itaXW-28" style="edgeStyle=orthogonalEdgeStyle;rounded=0;orthogonalLoop=1;jettySize=auto;html=1;exitX=0.5;exitY=1;exitDx=0;exitDy=0;entryX=0;entryY=0.25;entryDx=0;entryDy=0;entryPerimeter=0;startArrow=classic;startFill=1;enumerate=1;enumerateValue=3;" edge="1" parent="1" source="4w8I4MJi7LQIZc6itaXW-15" target="4w8I4MJi7LQIZc6itaXW-1">
          <mxGeometry relative="1" as="geometry">
            <Array as="points">
              <mxPoint x="163" y="260" />
              <mxPoint x="340" y="260" />
              <mxPoint x="340" y="340" />
            </Array>
          </mxGeometry>
        </mxCell>
      </root>
    </mxGraphModel>
  </diagram>
</mxfile>
